<?xml version="1.0" encoding="UTF-8" standalone="no"?>
<!-- Created with Inkscape (http://www.inkscape.org/) -->

<svg
   width="200mm"
   height="200mm"
   viewBox="0 0 200 200"
   version="1.1"
   id="svg5"
   inkscape:version="1.2.2 (b0a8486541, 2022-12-01)"
   sodipodi:docname="Commander.svg"
   inkscape:export-filename="Commander.png"
   inkscape:export-xdpi="96"
   inkscape:export-ydpi="96"
   xmlns:inkscape="http://www.inkscape.org/namespaces/inkscape"
   xmlns:sodipodi="http://sodipodi.sourceforge.net/DTD/sodipodi-0.dtd"
   xmlns="http://www.w3.org/2000/svg"
   xmlns:svg="http://www.w3.org/2000/svg">
  <sodipodi:namedview
     id="namedview7"
     pagecolor="#ffffff"
     bordercolor="#000000"
     borderopacity="0.25"
     inkscape:showpageshadow="2"
     inkscape:pageopacity="0.0"
     inkscape:pagecheckerboard="true"
     inkscape:deskcolor="#d1d1d1"
     inkscape:document-units="mm"
     showgrid="false"
     inkscape:zoom="0.73673541"
     inkscape:cx="351.5509"
     inkscape:cy="388.87774"
     inkscape:window-width="1920"
     inkscape:window-height="1008"
     inkscape:window-x="0"
     inkscape:window-y="0"
     inkscape:window-maximized="1"
     inkscape:current-layer="layer1" />
  <defs
     id="defs2" />
  <g
     inkscape:label="Layer 1"
     inkscape:groupmode="layer"
     id="layer1">
    <path
       style="fill:#999999;stroke:#000000;stroke-width:0.264583"
       d="m 26.241306,66.035288 -5.183687,11.246304 6.21772,87.053328 7.90542,4.02224 9.990457,-1.19803 -9.442969,-95.432254 -2.239449,-5.218077 z"
       id="path113" />
    <path
       style="fill:#999999;stroke:#000000;stroke-width:0.264583"
       d="m 28.73035,81.52237 3.591293,-33.039905 16.160824,-12.210399 8.978233,3.232166 48.12333,30.885127 -5.746066,11.13301 -31.962512,-0.359129 23.343409,24.06166 -3.950422,52.4329 -47.045949,-1e-5 z"
       id="path169"
       sodipodi:nodetypes="ccccccccccc" />
    <path
       style="fill:#ffff00;stroke:#000000;stroke-width:0.264583"
       d="m 68.593712,21.906892 8.978233,-7.900846 44.891165,4.668682 -10.05562,7.541717 z"
       id="path227" />
    <path
       style="fill:#ff6600;stroke:#000000;stroke-width:0.264583"
       d="m 110.61184,24.420798 8.97824,11.492141 -2.87304,26.216443 L 98.760573,70.748488 73.98065,49.918983 75.417168,22.266022 Z"
       id="path283" />
    <path
       style="fill:#ff6600;stroke:#000000;stroke-width:0.264583"
       d="M 106.66142,65.361549 105.58403,73.262393 77.571944,72.903264 76.853685,52.43289 98.042314,69.311971 Z"
       id="path393" />
    <path
       style="fill:#008000;stroke:#000000;stroke-width:0.264583"
       d="m 81.522369,67.875452 -26.934702,11.13301 5.746069,45.609428 31.962518,29.80774 22.984276,-21.9069 -10.41476,-59.615467 z"
       id="path395" />
    <path
       style="fill:#008080;stroke:#000000;stroke-width:0.264583"
       d="m 111.68923,135.7509 6.82346,42.7364 21.90689,11.13301 -32.32164,0.71826 -13.287786,-37.34946 z"
       id="path397" />
    <path
       style="fill:#008080;stroke:#000000;stroke-width:0.264583"
       d="m 63.20677,128.92744 v 56.74244 l 25.857316,4.30956 -14.365176,-16.16082 6.1052,-29.80774 z"
       id="path399" />
    <path
       style="fill:#ffffff;stroke:#000000;stroke-width:0.264583"
       d="m 96.964934,25.139056 9.696486,6.464329 -17.238204,0.718259 z"
       id="path565" />
    <path
       style="fill:#ffffff;stroke:#000000;stroke-width:0.264583"
       d="m 113.12575,49.559854 -12.56953,-0.35913 -5.746066,-5.027811 4.66868,10.055622 z"
       id="path567" />
    <ellipse
       style="fill:#000000;stroke:#000000;stroke-width:0.264583"
       id="path727"
       cx="99.119698"
       cy="29.448612"
       rx="2.5139058"
       ry="2.1547763" />
    <path
       style="fill:#008000;stroke:#000000;stroke-width:0.264583"
       d="M 166.99516,96.605802 167.71342,107.02055 98.760574,94.810157 97.683194,81.522369 Z"
       id="path842" />
    <path
       style="fill:#ffff00;stroke:#000000;stroke-width:0.264583"
       d="m 29.807739,166.99516 -7.541718,8.97823 5.027811,19.75212 4.309552,-11.85127 6.823459,11.85127 0.718259,-13.28779 8.619106,13.28779 -2.873036,-27.65296 z"
       id="path946" />
    <path
       style="fill:#008080;stroke:#000000;stroke-width:0.264583"
       d="m 77.571946,114.20314 -0.718259,8.97823 12.569529,9.33736 z"
       id="path948" />
    <path
       style="fill:#008080;stroke:#000000;stroke-width:0.264583"
       d="M 104.50664,126.41354 102.711,117.07617 91.218861,116.71704 Z"
       id="path950" />
    <path
       style="fill:#008080;stroke:#000000;stroke-width:0.264583"
       d="m 65.720677,93.373639 11.49214,5.746066 -6.464329,14.724305 -4.309552,-4.30956 z"
       id="path952" />
  </g>
  <g
     inkscape:groupmode="layer"
     id="layer2"
     inkscape:label="Layer 2">
    <path
       style="fill:#241c1c;stroke:#000000;stroke-width:0.264583"
       d="m 194.289,100.55622 -55.30593,-0.718255 -10.77388,8.619095 -15.44256,-0.71826 1.43651,-12.21039 -19.752106,7.90084 1.43652,-25.498175 21.547756,8.978236 6.82346,-12.569529 44.53204,3.232164 -22.26602,7.900847 44.89117,3.591292 z"
       id="path171" />
    <path
       style="fill:#ffff00;stroke:#000000;stroke-width:0.264583"
       d="m 162.32648,103.07013 5.02781,-6.464328 h 13.28778 l 4.66869,8.978228 z"
       id="path785" />
    <path
       style="fill:#ffff00;stroke:#000000;stroke-width:0.264583"
       d="m 124.97702,110.97097 0.35913,-8.25997 8.6191,-3.232165 -0.35913,-3.59129 -17.23821,1.43652 1.07739,14.365165 z"
       id="path845" />
    <path
       style="fill:#008000;stroke:#000000;stroke-width:0.264583"
       d="m 116.71704,99.478835 0.71826,10.414745 H 86.909308 l -15.442562,-22.625141 14.724303,-5.74607 8.259975,13.287787 z"
       id="path848" />
    <path
       style="fill:#008080;stroke:#000000;stroke-width:0.264583"
       d="m 80.80411,95.169286 7.182588,9.337354 8.259976,-5.027805 -8.619106,-8.619103 z"
       id="path956" />
    <path
       style="fill:#008080;stroke:#000000;stroke-width:0.264583"
       d="M 67.157192,78.290203 77.931076,72.544133 61.411122,89.782346 Z"
       id="path958" />
    <path
       style="fill:#008000;stroke:#000000;stroke-width:0.264583"
       d="m 70.030229,142.21523 3.950422,8.25997 -8.978233,8.61911 z"
       id="path960" />
    <path
       style="fill:#008000;stroke:#000000;stroke-width:0.264583"
       d="m 108.09794,149.75695 -8.978236,5.02781 10.055626,8.6191 3.95042,-2.87303 z"
       id="path962" />
    <path
       style="fill:#008000;stroke:#000000;stroke-width:0.264583"
       d="m 108.09794,178.84643 6.82346,6.46433 -0.35913,-17.59734 z"
       id="path964" />
    <path
       style="fill:#cccccc;stroke:#000000;stroke-width:0.264583"
       d="m 36.990326,66.438935 14.724304,1.077389 3.950424,80.085846 -11.851269,0.35913 z"
       id="path1020" />
    <path
       style="fill:#cccccc;stroke:#000000;stroke-width:0.264583"
       d="M 37.708586,82.599757 53.151148,81.522368"
       id="path1022" />
    <path
       style="fill:#cccccc;stroke:#000000;stroke-width:0.264583"
       d="M 39.504231,96.246674 H 52.432889"
       id="path1024" />
    <path
       style="fill:#cccccc;stroke:#000000;stroke-width:0.264583"
       d="m 40.940749,108.8162 12.569528,0.35913"
       id="path1026" />
    <path
       style="fill:#cccccc;stroke:#000000;stroke-width:0.264583"
       d="m 41.659008,121.0266 12.569528,0.71826"
       id="path1028" />
    <path
       style="fill:#cccccc;stroke:#000000;stroke-width:0.264583"
       d="M 43.095526,132.87787 53.869407,133.237"
       id="path1030" />
  </g>
</svg>
